<svg xmlns="http://www.w3.org/2000/svg" viewBox="0 0 512 512" role="img" aria-label="Places in Time logo">
  <g fill="none" stroke="#0f4c5c" stroke-width="64" stroke-linecap="round" stroke-linejoin="round">
    <path d="M320 64h96c53 0 96 43 96 96v96c0 35-21 65-48 80" />
    <path d="M192 64H96C43 64 0 107 0 160v96c0 35 21 65 48 80" />
    <path d="M192 448H96c-53 0-96-43-96-96v-96c0-35 21-65 48-80" />
    <path d="M320 448h96c53 0 96-43 96-96v-96c0-35-21-65-48-80" />
    <path d="M144 112l224 224" />
    <path d="M368 112L144 336" />
    <path d="M112 144l224 224" />
    <path d="M400 144L176 368" />
  </g>
</svg>
